<svg xmlns="http://www.w3.org/2000/svg" viewBox="0 0 33.85 32.38"><defs><style>.cls-1{fill:none;stroke:#333;stroke-linecap:round;stroke-linejoin:round;stroke-width:3px;}.cls-2{fill:#ff921e;stroke:#ff921e;stroke-miterlimit:10;}</style></defs><title>gmail-logo-2</title><g id="Layer_2" data-name="Layer 2"><g id="Layer_1-2" data-name="Layer 1"><path class="cls-1" d="M25.72,30.88H8.13A6.63,6.63,0,0,1,1.5,24.25V8.13A6.63,6.63,0,0,1,8.13,1.5H25.72a6.63,6.63,0,0,1,6.63,6.63V24.25A6.63,6.63,0,0,1,25.72,30.88Z"/><path class="cls-2" d="M23.56,9H10.62a2.42,2.42,0,0,0-2.42,2.43V21a2.42,2.42,0,0,0,2.42,2.43H23.56A2.44,2.44,0,0,0,26,21V11.48A2.44,2.44,0,0,0,23.56,9ZM10.62,11H23.56a.93.93,0,0,1,.26,0l-6.74,5.39-6.74-5.39A.93.93,0,0,1,10.62,11ZM24.51,21.09a.81.81,0,0,1-.82.82H11a.82.82,0,0,1-.82-.82V12.26l6.68,5.42a.79.79,0,0,0,.5.18.78.78,0,0,0,.49-.18l6.68-5.42Z"/></g></g></svg>