<svg xmlns="http://www.w3.org/2000/svg" viewBox="0 0 49.92 49.76"><defs><style>.cls-1{fill:#ff911e;}.cls-2{fill:#333;}.cls-3{fill:#555;}</style></defs><title>rp-logo-2</title><g id="Layer_2" data-name="Layer 2"><g id="Layer_1-2" data-name="Layer 1"><rect class="cls-1" width="49.92" height="49.76" rx="11.33" ry="11.33"/><path class="cls-2" d="M19.6,0V10.89A10.05,10.05,0,0,1,9.55,20.94H0V5.57A5.59,5.59,0,0,1,5.61,0Z"/><path class="cls-3" d="M40.43,28.65h9.5V44.14a5.62,5.62,0,0,1-5.61,5.62h-14v-11A10.1,10.1,0,0,1,40.43,28.65Z"/><path class="cls-2" d="M.36,22.11,1,23.53,12.88,49.76H29.32v-11A11.1,11.1,0,0,1,40.44,27.64h9.48V0H20.61V11A11.15,11.15,0,0,1,9.45,22.11Z"/><path class="cls-2" d="M11.86,49.76H5.6A5.59,5.59,0,0,1,0,44.16V23.6l1,2.23Z"/></g></g></svg>